<svg version="1.2" xmlns="http://www.w3.org/2000/svg" viewBox="0 0 795 105" width="795" height="105">
	<title>gambaware</title>
	<style>
		.s0 { fill: #000000 } 
		.s1 { fill: #ef681c } 
	</style>
	<path class="s0" d="m0 54.5c0-36.2 15.8-54.5 40.8-54.5 17.2 0 30.3 8.4 33.9 27.4l0.6 3.1-14.8 3.1-0.6-2.7c-2.8-12.8-9.9-17.7-19.4-17.7-13.5 0-24.3 11.8-24.3 40.3 0 27 9.8 38.3 23.4 38.3 9.7 0 21-5.1 21-22.9v-3h-21.3v-12.7h36.1v50.1h-12.9l-0.9-12.4c-4.8 10-14.2 14.1-25.2 14.1-22 0-36.4-17.6-36.4-50.5z"/>
	<path class="s0" d="m131.1 96.3c-4.5 4.8-10.5 8.5-20 8.7-13.7 0-22.5-9.2-22.5-20.9 0-12.8 10.6-19 19.9-21.6l22.4-6.4v-2.6c0-8.1-5-12.2-13-12.2-7.4 0-13.3 4.7-16 9.9l-0.4 0.9-11.5-6.1 0.8-1.5c3.2-6.5 12-15.5 28.4-15.5 16.4 0 26.8 8.3 26.8 23.2v38.1c0 3.7 0.2 8.4 0.9 11.6l0.3 1.3h-15.1l-0.2-0.7c-0.4-2-0.7-4-0.8-6.2zm-16.1-2.8c6.7 0 12.6-3.9 15.9-8.1v-18.3l-15.6 4.8c-6 1.9-11.2 4.9-11.2 11.2 0 6.2 4.2 10.4 10.9 10.4z"/>
	<path class="s0" d="m233.6 42c-5.9 0-12.2 4.1-15.7 7.6v53.6h-15.1v-50c0-7.4-3.7-11.2-11-11.2-5.9 0-12.2 4.1-15.6 7.6v53.6h-15.1v-72.5h14.3v8c5.6-5.8 13.4-9.7 21.5-9.7 10.2 0 16.3 4.6 19.2 11 5.5-6.5 13.9-11 22.6-11 14.9 0 21 10 21 20.9v53.3h-15.1v-50c0-7.4-3.7-11.2-11-11.2z"/>
	<path class="s0" d="m290.6 96.6l-1.5 6.6h-12.7v-101.5h15v35c4.4-4.9 11.1-7.7 18-7.7 16.6 0 27.7 12.3 27.7 37 0 24.6-11.7 39-28.3 39-7.3 0-14.2-3.1-18.2-8.4zm15.4-3.8c8.5 0 15.8-7.8 15.8-26.4 0-18.5-7.6-25.1-16.1-25.1-5.8 0-10.6 2.9-14.2 6.7v37.9c3.7 3.9 8.7 6.9 14.5 6.9z"/>
	<path class="s0" d="m349.6 1.7h15.1v101.5h-15.1z"/>
	<path class="s0" d="m378 68c0-22.9 11.5-39 31.5-39 14.1 0 28.8 8.4 28.8 34.5v6.8h-45.5v0.9c0 14.1 7.4 21.9 17.3 21.9 6.3 0 11.7-2.6 15.3-9.1l0.9-1.6 11.9 5-0.7 1.5c-5.4 10.7-15 16.1-27.9 16.1-18.2 0-31.6-12.9-31.6-37zm46.1-7.7v-1c0-13.2-6.9-18.1-14.6-18.1-7.7 0-15.3 5.8-16.5 19.1h31.1z"/>
	<path class="s1" d="m478.4 1.7h21.9l28.7 101.5h-16.1l-7.1-26.6h-33.7l-7.1 26.6h-15.2zm23.9 62.4l-13.3-49.9-13.4 49.9z"/>
	<path class="s1" d="m525.2 30.7h15.1l11.8 51.8 13.2-51.8h14.3l12.9 51.8 12.3-51.8h13.8l-18.7 72.5h-15l-13-51.6-13.2 51.6h-14.8z"/>
	<path class="s1" d="m663.1 96.3c-4.5 4.8-10.5 8.5-20 8.7-13.7 0-22.5-9.2-22.5-20.9 0-12.8 10.6-19 19.9-21.6l22.4-6.4v-2.6c0-8.1-5-12.2-13-12.2-7.4 0-13.3 4.7-16 9.9l-0.4 0.9-11.4-6.1 0.7-1.5c3.2-6.5 12-15.5 28.4-15.5 16.4 0 26.8 8.3 26.8 23.2v38.1c0 3.7 0.2 8.4 0.9 11.6l0.3 1.3h-15.1l-0.1-0.7c-0.5-2-0.8-4-0.9-6.2zm-16.1-2.8c6.7 0 12.6-3.9 15.9-8.1v-18.3l-15.6 4.8c-6 1.9-11.2 4.9-11.2 11.2 0 6.2 4.2 10.4 10.9 10.4z"/>
	<path class="s1" d="m692.7 30.7h14v13.7c9.6-11.2 18.2-14.5 25.4-14.7v14.1c-10.1 0-18.1 5.7-24.4 11.3v48.1h-15c0 0 0-72.5 0-72.5z"/>
	<path class="s1" d="m733.7 68c0-22.9 11.5-39 31.5-39 14 0 28.8 8.4 28.8 34.5v6.8h-45.5v0.9c0 14.1 7.4 21.9 17.3 21.9 6.3 0 11.7-2.6 15.3-9.1l0.9-1.6 11.9 5-0.7 1.5c-5.4 10.7-15 16.1-27.9 16.1-18.2 0-31.6-12.9-31.6-37zm46.1-7.7v-1c0-13.2-6.9-18.1-14.6-18.1-7.7 0-15.3 5.8-16.6 19.1h31.2z"/>
</svg>